<svg width="492" height="633" viewBox="0 0 492 633" fill="none" xmlns="http://www.w3.org/2000/svg">
<path d="M99.0958 434.697H56.8051V455.918H99.0958V434.697Z" fill="black"/>
<path d="M413.084 434.697H291.798V455.918H413.084V434.697Z" fill="black"/>
<path d="M412.163 336.794H78.2314V356.012H412.163V336.794Z" fill="black"/>
<path d="M78.2313 78.6814H58.4439V336.795H78.2313V78.6814Z" fill="black"/>
<path d="M412.163 59.4625H78.2314V78.6806H412.163V59.4625Z" fill="black"/>
<path d="M431.95 78.6814H412.163V336.795H431.95V78.6814Z" fill="black"/>
<path d="M452.951 0.474609H38.8268V19.6927H452.951V0.474609Z" fill="black"/>
<path d="M492 39.3715H472.213V533.723H492V39.3715Z" fill="black"/>
<path d="M472.213 533.724H19.7873V552.942H472.213V533.724Z" fill="black"/>
<path d="M19.7873 39.3715H0V533.723H19.7873V39.3715Z" fill="black"/>
<path d="M472.213 533.724H452.425V632.475H472.213V533.724Z" fill="black"/>
<path d="M472.213 613.257H19.7873V632.475H472.213V613.257Z" fill="black"/>
<path d="M39.5747 533.724H19.7873V632.475H39.5747V533.724Z" fill="black"/>
<path d="M176.815 136.671H155.83V178.165H176.815V136.671Z" fill="black"/>
<path d="M336.64 136.671H316.454V178.164H336.64V136.671Z" fill="black"/>
<path d="M255.412 136.671H236.024V237.824H255.412V136.671Z" fill="black"/>
<path d="M252.382 218.354H216.636V237.824H252.382V218.354Z" fill="black"/>
<path d="M296.305 257.193H276.918V276.664H296.305V257.193Z" fill="black"/>
<path d="M276.918 276.663H196.731V295.882H276.918V276.663Z" fill="black"/>
<path d="M196.731 257.193H177.343V276.664H196.731V257.193Z" fill="black"/>
<path d="M38.8269 19.6935H19.7873V39.3729H38.8269V19.6935Z" fill="black"/>
<path d="M472.213 19.6936H453.173V39.373H472.213V19.6936Z" fill="black"/>
</svg>
